<?xml version="1.0" encoding="UTF-8" standalone="no"?>
<svg
   xmlns:dc="http://purl.org/dc/elements/1.1/"
   xmlns:cc="http://creativecommons.org/ns#"
   xmlns:rdf="http://www.w3.org/1999/02/22-rdf-syntax-ns#"
   xmlns:svg="http://www.w3.org/2000/svg"
   xmlns="http://www.w3.org/2000/svg"
   xmlns:sodipodi="http://sodipodi.sourceforge.net/DTD/sodipodi-0.dtd"
   xmlns:inkscape="http://www.inkscape.org/namespaces/inkscape"
   width="920"
   height="537.35999"
   viewBox="0 0 640 409"
   version="1.0"
   id="svg2"
   sodipodi:version="0.32"
   inkscape:version="0.91 r13725"
   sodipodi:docname="RPM_Logo.svg"
   inkscape:output_extension="org.inkscape.output.svg.inkscape">
  <metadata
     id="metadata43">
    <rdf:RDF>
      <cc:Work
         rdf:about="">
        <dc:format>image/svg+xml</dc:format>
        <dc:type
           rdf:resource="http://purl.org/dc/dcmitype/StillImage" />
      </cc:Work>
    </rdf:RDF>
  </metadata>
  <sodipodi:namedview
     inkscape:window-height="2091"
     inkscape:window-width="3840"
     inkscape:pageshadow="2"
     inkscape:pageopacity="0.0"
     guidetolerance="10.0"
     gridtolerance="10.0"
     objecttolerance="10.0"
     borderopacity="1.0"
     bordercolor="#666666"
     pagecolor="#ffffff"
     id="base"
     width="920px"
     height="537.36px"
     inkscape:zoom="0.58998608"
     inkscape:cx="689.80903"
     inkscape:cy="89.005306"
     inkscape:window-x="0"
     inkscape:window-y="30"
     inkscape:current-layer="svg2"
     showgrid="false"
     inkscape:window-maximized="1" />
  <defs
     id="defs4">
    <clipPath
       id="clip0">
      <rect
         width="640"
         height="409"
         id="rect7"
         x="0"
         y="0" />
    </clipPath>
  </defs>
  <g
     id="g2211"
     transform="matrix(1.1106234,0,0,1.1106234,-37.666982,-15.952596)">
    <path
       style="fill:#000000;fill-rule:nonzero;stroke:none"
       d="M 242.1304,26.136154 C 254.70415,24.204163 267.38588,22.791809 280.0975,22.122498 C 282.35576,21.584457 284.69162,21.694412 286.99869,21.611954 C 305.03506,21.036636 323.09628,21.062668 341.12505,21.874893 C 373.66519,24.176361 406.04054,29.582169 437.43091,38.593475 L 437.29799,38.769745 C 432.69597,44.993652 428.08047,51.207764 423.56764,57.495636 C 422.21545,57.745117 421.03183,56.889877 419.8275,56.459152 C 396.0118,46.631683 370.66049,40.927002 345.14435,37.839966 C 303.17429,33.542038 260.20618,36.9953 219.94295,49.910034 C 190.29894,59.497772 161.67183,74.281876 139.5663,96.576553 C 123.90071,112.59686 111.87303,133.32129 110.24046,156.02855 C 108.72133,166.85004 111.31233,177.65282 113.60428,188.15413 L 14.185699,205.68005 C 13.945419,188.13843 18.523071,170.78329 25.80806,154.91394 C 40.297989,124.01501 65.424713,99.327652 93.421997,80.42572 C 112.35318,67.714981 132.81692,57.345383 154.07152,49.122925 C 182.38751,38.052567 212.05559,30.488739 242.1304,26.136154 z "
       id="path16"
       sodipodi:nodetypes="cccccccccccccccccc" />
    <path
       style="fill:#d72123;fill-rule:nonzero;stroke:none"
       d="M 423.56764,57.495636 C 428.08047,51.207764 432.69597,44.993652 437.29799,38.769745 C 479.44521,51.113983 520.14622,70.606537 553.3929,99.651688 C 566.98732,111.82498 579.28281,125.5966 588.72606,141.2652 C 599.90866,159.70456 606.9949,180.82132 607.75311,202.45526 C 574.69661,196.67767 541.64931,190.8508 508.59731,185.05354 C 512.66524,172.11536 512.69997,158.02864 509.91435,144.82548 C 504.75171,122.00699 490.12285,102.41544 472.47707,87.543396 C 457.76711,75.165924 440.98531,65.246307 423.20515,57.986771 L 423.56764,57.495636 z "
       id="path20" />
    <path
       style="fill:#000000;fill-rule:nonzero;stroke:none"
       d="M 301.70334,148.63515 C 303.64912,145.46657 307.07517,142.93918 310.97199,143.40828 C 315.37659,143.52095 318.77077,147.16072 319.68323,151.27986 L 630.43405,206.55775 L 629.39653,211.76382 L 318.71321,157.28287 C 316.23477,161.59503 310.48546,163.82207 305.96864,161.27567 C 302.83719,159.90678 301.76889,156.55594 300.35561,153.74454 L 281.22589,150.67943 L 282.1028,145.29814 L 301.70334,148.63515 z "
       id="path24"
       sodipodi:nodetypes="ccccccccccc" />
    <path
       style="fill:#000000;fill-rule:nonzero;stroke:none"
       d="M 13.649231,221.30466 C 31.911636,221.18204 50.175491,221.28207 68.438629,221.25369 C 68.456711,221.93039 68.492889,223.28377 68.510971,223.96046 C 81.78093,221.07069 95.419388,219.84172 108.99162,220.5909 C 118.87418,221.49564 127.94777,225.73082 136.78575,229.935 C 126.82282,236.09672 116.68483,242.03085 106.96231,248.55022 C 96.128143,240.18365 81.403198,240.17624 68.768494,243.83687 C 68.610809,245.18874 68.46254,246.54526 68.449081,247.91402 C 68.455475,279.35362 68.464249,310.79379 68.445374,342.23402 C 50.189575,342.2283 31.934006,342.25079 13.678345,342.22247 C 13.639542,301.91635 13.697601,261.61043 13.649231,221.30466 z "
       id="path28" />
    <path
       style="fill:#000000;fill-rule:nonzero;stroke:none"
       d="M 252.55273 301.875 C 240.81995 301.86505 229.08725 301.8738 217.35547 301.97266 L 217.3457 527.35938 L 297.38281 516.37891 L 297.44727 480.00195 C 334.25868 478.44804 370.42616 469.18934 402.96875 451.77734 C 420.72112 441.78576 438.16259 428.41797 446.30664 409.13672 C 453.24443 393.06496 450.15425 374.20612 441.31641 359.51758 C 429.67908 340.60865 410.2624 328.0483 390.18945 319.54883 C 357.8699 306.17312 322.52509 301.69126 287.75 301.88867 C 276.01727 301.91307 264.28552 301.88495 252.55273 301.875 z M 297.50391 321.36523 C 318.00085 323.42205 336.52855 335.00427 350.5293 349.66016 C 362.6033 362.35879 371.13806 380.07702 368.18945 397.92383 C 364.96646 415.80293 352.52641 430.32704 338.53711 441.13867 C 326.38693 450.05814 312.64665 457.75908 297.5 459.77734 C 297.44779 413.63991 297.44094 367.50204 297.50391 321.36523 z "
       transform="matrix(0.68531646,0,0,0.68531646,6.7960638,14.363641)"
       id="path32" />
    <path
       style="fill:#000000;fill-rule:nonzero;stroke:none"
       d="M 350.73776,221.33231 C 413.49503,221.14064 476.25624,221.30894 539.01537,221.24805 C 557.37595,221.32402 576.04198,221.44025 593.90257,226.18999 C 599.04286,227.88318 605.89815,229.89665 607.2502,235.8717 C 607.38423,271.32356 607.30022,306.78361 607.29105,342.23883 C 589.0249,342.23503 570.75967,342.22754 552.49496,342.24268 C 552.491,307.06375 552.41933,271.88358 552.53064,236.70589 C 549.2124,233.82698 544.4819,233.9498 540.36195,233.44704 C 529.09674,233.15378 517.8225,233.36302 506.55541,233.33128 C 506.55789,269.63435 506.59598,305.9377 506.53635,342.24097 C 488.24435,342.22391 469.95316,342.24573 451.66232,342.22978 C 451.60817,313.15071 451.65422,284.07179 451.63918,254.99307 C 451.49283,248.63887 451.95763,242.26082 451.36241,235.92719 C 446.21605,233.7641 440.57843,233.3403 435.06027,233.31384 C 425.26251,233.29803 415.46587,233.32082 405.66998,233.30383 C 405.62199,269.61919 405.72909,305.93532 405.6163,342.25056 C 388.39282,342.22855 371.16965,342.21668 353.94728,342.25768 L 350.62976,342.24453 C 350.91312,302.16914 350.6976,261.41138 350.73776,221.33231 z "
       id="path36"
       sodipodi:nodetypes="ccccccccccccccccccc" />
  </g>
</svg>
